<?xml version="1.0" encoding="utf-8"?>
<!-- Generator: Adobe Illustrator 16.0.0, SVG Export Plug-In . SVG Version: 6.00 Build 0)  -->
<!DOCTYPE svg PUBLIC "-//W3C//DTD SVG 1.1//EN" "http://www.w3.org/Graphics/SVG/1.1/DTD/svg11.dtd">
<svg version="1.1" id="Layer_1" xmlns="http://www.w3.org/2000/svg" xmlns:xlink="http://www.w3.org/1999/xlink" x="0px" y="0px"
	 width="176.393px" height="28.098px" viewBox="0 0 176.393 28.098" enable-background="new 0 0 176.393 28.098"
	 xml:space="preserve">
<g>
	<path fill="#4374BA" d="M157.733,8.892l4.453,6.05l3.532-3.51l2.962,1.856h7.712v-5.64c0-1.511-1.227-2.737-2.738-2.737h-18.32
		c-1.514,0-2.737,1.226-2.737,2.737v6.014h1.694L157.733,8.892z"/>
	<path fill="#4374BA" d="M165.824,12.385l-3.729,3.703l-4.355-5.92l-3.062,4.247h-2.081v5.093c0,1.511,1.224,2.735,2.737,2.735
		h4.562c0.364,1.021,0.243,2.348-1.274,3.875c0,0,4.301-0.695,7.023-3.875h8.01c1.512,0,2.738-1.225,2.738-2.735v-5.47h-7.929
		L165.824,12.385z"/>
</g>
<g enable-background="new    ">
	<path fill="#010101" d="M6.783,6.003c2.31,0,4.087,0.588,5.334,1.764c1.246,1.176,1.869,2.968,1.869,5.376
		c0,1.26-0.14,2.376-0.42,3.349c-0.28,0.974-0.714,1.793-1.302,2.457c-0.588,0.665-1.337,1.173-2.247,1.522
		c-0.91,0.351-1.988,0.525-3.234,0.525H1.638V6.003H6.783z M6.951,19.317c0.224,0,0.504-0.018,0.84-0.053s0.693-0.119,1.071-0.252
		c0.378-0.133,0.752-0.325,1.124-0.577c0.371-0.253,0.704-0.596,0.998-1.029s0.536-0.977,0.725-1.628
		c0.189-0.65,0.284-1.438,0.284-2.362c0-0.896-0.088-1.697-0.263-2.404c-0.175-0.707-0.462-1.31-0.861-1.806
		c-0.399-0.497-0.914-0.875-1.543-1.134c-0.63-0.259-1.407-0.389-2.331-0.389h-3.36v11.634H6.951z"/>
	<path fill="#010101" d="M26.775,6.003v1.68h-8.358v4.767h7.791v1.68h-7.791v5.188h8.421v1.68H16.422V6.003H26.775z"/>
	<path fill="#010101" d="M34.692,6.003c0.322,0,0.668,0.004,1.04,0.011c0.371,0.007,0.738,0.028,1.103,0.063
		c0.364,0.035,0.703,0.087,1.018,0.157c0.315,0.07,0.584,0.175,0.809,0.315c0.49,0.294,0.906,0.701,1.25,1.218
		c0.343,0.518,0.515,1.155,0.515,1.912c0,0.797-0.193,1.487-0.578,2.067c-0.385,0.582-0.935,1.012-1.648,1.292v0.042
		c0.924,0.196,1.631,0.616,2.121,1.26c0.49,0.645,0.735,1.429,0.735,2.353c0,0.546-0.098,1.078-0.294,1.596
		c-0.196,0.519-0.487,0.977-0.872,1.375c-0.385,0.399-0.861,0.722-1.428,0.967c-0.567,0.245-1.222,0.367-1.964,0.367h-7.245V6.003
		H34.692z M35.238,12.45c1.134,0,1.949-0.199,2.446-0.599s0.746-0.997,0.746-1.796c0-0.531-0.084-0.952-0.252-1.26
		c-0.168-0.308-0.399-0.546-0.693-0.714s-0.634-0.276-1.019-0.326c-0.385-0.049-0.795-0.073-1.229-0.073h-3.99v4.767H35.238z
		 M36.246,19.317c0.882,0,1.571-0.238,2.069-0.714c0.497-0.477,0.745-1.135,0.745-1.975c0-0.489-0.091-0.896-0.273-1.218
		s-0.423-0.577-0.725-0.767c-0.301-0.188-0.647-0.322-1.039-0.399c-0.392-0.076-0.798-0.115-1.218-0.115h-4.557v5.188H36.246z"/>
	<path fill="#010101" d="M49.916,6.003l5.859,14.994H53.57l-1.639-4.515H45.59l-1.68,4.515h-2.037l5.837-14.994H49.916z
		 M51.303,14.802l-2.5-6.993h-0.041l-2.541,6.993H51.303z"/>
	<path fill="#010101" d="M53.718,7.683v-1.68h11.991v1.68h-4.998v13.314h-1.995V7.683H53.718z"/>
	<path fill="#010101" d="M77.721,6.003v1.68h-8.358v4.767h7.791v1.68h-7.791v5.188h8.421v1.68H67.367V6.003H77.721z"/>
	<path fill="#010101" d="M85.68,14.319v1.68H79.61v-1.68H85.68z"/>
	<path fill="#010101" d="M94.646,6.003l5.859,14.994h-2.205l-1.639-4.515H90.32l-1.68,4.515h-2.037l5.838-14.994H94.646z
		 M96.032,14.802l-2.499-6.993h-0.042l-2.541,6.993H96.032z"/>
	<path fill="#010101" d="M107.456,14.319v1.68h-6.069v-1.68H107.456z"/>
	<path fill="#010101" d="M115.583,6.003c0.321,0,0.668,0.004,1.039,0.011c0.371,0.007,0.738,0.028,1.103,0.063
		c0.364,0.035,0.704,0.087,1.019,0.157c0.315,0.07,0.585,0.175,0.809,0.315c0.49,0.294,0.906,0.701,1.25,1.218
		c0.343,0.518,0.514,1.155,0.514,1.912c0,0.797-0.192,1.487-0.577,2.067c-0.385,0.582-0.935,1.012-1.648,1.292v0.042
		c0.924,0.196,1.631,0.616,2.121,1.26c0.49,0.645,0.735,1.429,0.735,2.353c0,0.546-0.099,1.078-0.294,1.596
		c-0.196,0.519-0.487,0.977-0.872,1.375c-0.385,0.399-0.861,0.722-1.428,0.967c-0.567,0.245-1.222,0.367-1.964,0.367h-7.245V6.003
		H115.583z M116.129,12.45c1.134,0,1.949-0.199,2.446-0.599s0.746-0.997,0.746-1.796c0-0.531-0.084-0.952-0.252-1.26
		c-0.169-0.308-0.399-0.546-0.693-0.714s-0.634-0.276-1.019-0.326c-0.386-0.049-0.795-0.073-1.229-0.073h-3.99v4.767H116.129z
		 M117.137,19.317c0.882,0,1.571-0.238,2.068-0.714c0.497-0.477,0.746-1.135,0.746-1.975c0-0.489-0.092-0.896-0.273-1.218
		s-0.424-0.577-0.725-0.767c-0.301-0.188-0.647-0.322-1.039-0.399c-0.393-0.076-0.798-0.115-1.218-0.115h-4.558v5.188H117.137z"/>
	<path fill="#010101" d="M124.14,10.55c0.302-0.945,0.753-1.782,1.354-2.51c0.603-0.728,1.352-1.309,2.247-1.743
		c0.896-0.434,1.939-0.651,3.13-0.651c1.189,0,2.232,0.217,3.129,0.651c0.896,0.434,1.645,1.016,2.247,1.743
		c0.602,0.728,1.053,1.564,1.354,2.51c0.301,0.944,0.451,1.929,0.451,2.95c0,1.022-0.15,2.006-0.451,2.95
		c-0.302,0.945-0.753,1.782-1.354,2.51c-0.603,0.729-1.352,1.306-2.247,1.732c-0.896,0.427-1.939,0.641-3.129,0.641
		c-1.19,0-2.233-0.214-3.13-0.641c-0.896-0.427-1.645-1.004-2.247-1.732c-0.602-0.728-1.053-1.564-1.354-2.51
		c-0.301-0.944-0.451-1.928-0.451-2.95C123.688,12.479,123.839,11.494,124.14,10.55z M125.978,15.736
		c0.196,0.735,0.504,1.396,0.924,1.984s0.959,1.061,1.617,1.418c0.658,0.356,1.441,0.535,2.353,0.535
		c0.909,0,1.693-0.179,2.352-0.535c0.658-0.357,1.197-0.83,1.617-1.418s0.728-1.249,0.924-1.984c0.196-0.734,0.294-1.48,0.294-2.236
		s-0.098-1.501-0.294-2.236s-0.504-1.396-0.924-1.984c-0.42-0.588-0.959-1.061-1.617-1.418c-0.658-0.357-1.442-0.535-2.352-0.535
		c-0.911,0-1.694,0.178-2.353,0.535c-0.658,0.357-1.197,0.83-1.617,1.418c-0.42,0.588-0.728,1.249-0.924,1.984
		s-0.294,1.48-0.294,2.236S125.781,15.002,125.978,15.736z"/>
	<path fill="#010101" d="M138.893,7.683v-1.68h11.991v1.68h-4.998v13.314h-1.995V7.683H138.893z"/>
</g>
<g>
</g>
<g>
</g>
<g>
</g>
<g>
</g>
<g>
</g>
<g>
</g>
</svg>
