<?xml version="1.0" encoding="utf-8"?>
<!-- Generator: Adobe Illustrator 16.0.0, SVG Export Plug-In . SVG Version: 6.00 Build 0)  -->
<!DOCTYPE svg PUBLIC "-//W3C//DTD SVG 1.1//EN" "http://www.w3.org/Graphics/SVG/1.1/DTD/svg11.dtd">
<svg version="1.1" id="Your_Icon" xmlns="http://www.w3.org/2000/svg" xmlns:xlink="http://www.w3.org/1999/xlink" x="0px" y="0px"
	 width="400px" height="100px" viewBox="-150 0 400 100" enable-background="new -150 0 400 100" xml:space="preserve">
<circle cx="-109.683" cy="36.257" r="2.835"/>
<circle cx="-100.002" cy="36.405" r="2.835"/>
<path d="M-135.989,43.151v3.882c0,1.763,1.429,3.192,3.186,3.192s3.193-1.43,3.193-3.192v-3.882h5.54v3.882
	c0,3.852-2.504,7.126-5.963,8.29v11.205h6.4v-0.555c0-6.082,4.467-10.666,10.385-10.666h17.245c5.726,0,10.385,4.659,10.385,10.385
	v13.111h-5.548V65.692c0-2.666-2.17-4.836-4.837-4.836h-17.245c-2.896,0-4.836,2.059-4.836,5.117v20.719h-5.549V72.069h-11.939
	V55.323c-3.461-1.164-5.965-4.438-5.965-8.29v-3.882H-135.989z"/>
<polygon points="-97,43.151 -97,45.529 -104.026,45.529 -104.827,44.728 -106.59,46.498 -108.85,44.244 -109.917,45.312 
	-111.984,45.312 -111.984,43.151 "/>
<polygon points="-104.281,46.149 -97,46.149 -97,48.092 -111.984,48.092 -111.984,45.932 -109.663,45.932 -108.85,45.119 
	-106.59,47.373 -104.827,45.609 "/>
<path d="M-90.014,39.096v-7.333c0-2.837-2.312-5.156-5.156-5.156h-8.185v-2.385c0.874-0.304,1.496-1.141,1.496-2.118
	c0-1.245-1.007-2.252-2.251-2.252c-1.245,0-2.259,1.007-2.259,2.252c0,0.978,0.622,1.807,1.496,2.111v2.393h-9.066
	c-2.845,0-5.156,2.319-5.156,5.156v7.333h-1.511v4.06h1.511v10.859h29.082V43.155h1.637v-4.06H-90.014z M-94.451,49.585h-20.208
	V31.763c0-0.4,0.326-0.711,0.719-0.711h18.77c0.393,0,0.719,0.311,0.719,0.711V49.585L-94.451,49.585z"/>
<g>
	<path fill="#007AFF" d="M-83.902,9.412l5.922,8.05l4.7-4.668l3.941,2.468h10.261V7.758c0-2.011-1.631-3.641-3.642-3.641h-24.378
		c-2.01,0-3.641,1.63-3.641,3.641v8.002h2.258L-83.902,9.412z"/>
	<path fill="#007AFF" d="M-73.138,14.062l-4.962,4.926l-5.795-7.878l-4.074,5.651h-2.77v6.775c0,2.013,1.631,3.642,3.641,3.642
		h6.071c0.486,1.359,0.324,3.123-1.695,5.154c0,0,5.723-0.927,9.345-5.154h10.657c2.011,0,3.642-1.629,3.642-3.642v-7.275h-10.548
		L-73.138,14.062z"/>
</g>
<text transform="matrix(1 0 0 1 -82.6182 79.1992)" font-family="'Raleway-Thin'" font-size="51.8612">Debate-a-bot</text>
</svg>
