<?xml version="1.0" encoding="utf-8"?>
<!-- Generator: Adobe Illustrator 16.0.0, SVG Export Plug-In . SVG Version: 6.00 Build 0)  -->
<!DOCTYPE svg PUBLIC "-//W3C//DTD SVG 1.1//EN" "http://www.w3.org/Graphics/SVG/1.1/DTD/svg11.dtd">
<svg version="1.1" id="Your_Icon" xmlns="http://www.w3.org/2000/svg" xmlns:xlink="http://www.w3.org/1999/xlink" x="0px" y="0px"
	 width="100px" height="100px" viewBox="0 0 100 100" enable-background="new 0 0 100 100" xml:space="preserve">
<circle cx="39.805" cy="37.747" r="2.835"/>
<circle cx="49.486" cy="37.894" r="2.835"/>
<path d="M13.499,44.641v3.882c0,1.763,1.429,3.192,3.186,3.192s3.193-1.43,3.193-3.192v-3.882h5.54v3.882
	c0,3.852-2.504,7.126-5.963,8.29v11.205h6.4v-0.555c0-6.082,4.467-10.666,10.385-10.666h17.245c5.726,0,10.385,4.659,10.385,10.385
	v13.111h-5.548V67.182c0-2.666-2.17-4.836-4.837-4.836H36.24c-2.896,0-4.836,2.059-4.836,5.117v20.719h-5.549V73.559H13.916V56.812
	c-3.461-1.164-5.965-4.438-5.965-8.29v-3.882H13.499z"/>
<polygon points="52.488,44.641 52.488,47.018 45.462,47.018 44.661,46.217 42.898,47.987 40.639,45.733 39.571,46.801 
	37.504,46.801 37.504,44.641 "/>
<polygon points="45.208,47.639 52.488,47.639 52.488,49.581 37.504,49.581 37.504,47.421 39.826,47.421 40.639,46.608 
	42.898,48.862 44.661,47.099 "/>
<path d="M59.475,40.585v-7.333c0-2.837-2.312-5.156-5.156-5.156h-8.185v-2.385c0.874-0.304,1.496-1.141,1.496-2.118
	c0-1.245-1.007-2.252-2.251-2.252c-1.245,0-2.259,1.007-2.259,2.252c0,0.978,0.622,1.807,1.496,2.111v2.393h-9.066
	c-2.845,0-5.156,2.319-5.156,5.156v7.333h-1.511v4.06h1.511v10.859h29.082V44.645h1.637v-4.06H59.475z M55.037,51.074H34.83V33.252
	c0-0.4,0.326-0.711,0.719-0.711h18.77c0.393,0,0.719,0.311,0.719,0.711V51.074L55.037,51.074z"/>
<g>
	<path fill="#007AFF" d="M65.586,10.901l5.922,8.05l4.7-4.668l3.941,2.468H90.41V9.248c0-2.011-1.631-3.641-3.642-3.641H62.391
		c-2.01,0-3.641,1.63-3.641,3.641v8.002h2.258L65.586,10.901z"/>
	<path fill="#007AFF" d="M76.351,15.551l-4.962,4.926l-5.795-7.878L61.52,18.25h-2.77v6.775c0,2.013,1.631,3.642,3.641,3.642h6.071
		c0.486,1.359,0.324,3.123-1.695,5.154c0,0,5.723-0.927,9.345-5.154h10.657c2.011,0,3.642-1.629,3.642-3.642V17.75H79.862
		L76.351,15.551z"/>
</g>
</svg>
